<mxfile host="app.diagrams.net" agent="Mozilla/5.0 (Macintosh; Intel Mac OS X 10_15_7) AppleWebKit/537.36 (KHTML, like Gecko) Chrome/129.0.0.0 Safari/537.36" version="24.7.16">
  <diagram name="Page-1" id="2a216829-ef6e-dabb-86c1-c78162f3ba2b">
    <mxGraphModel dx="1230" dy="735" grid="1" gridSize="10" guides="1" tooltips="1" connect="1" arrows="1" fold="1" page="1" pageScale="1" pageWidth="850" pageHeight="1100" background="none" math="0" shadow="0">
      <root>
        <mxCell id="0" />
        <mxCell id="1" parent="0" />
        <mxCell id="cVU8PKr6mCnD7bqWDLD0-123" value="BA Actividad 3 - Flujos" style="swimlane;html=1;childLayout=stackLayout;horizontal=1;startSize=20;horizontalStack=0;rounded=0;shadow=0;labelBackgroundColor=none;strokeWidth=1;fontFamily=Verdana;fontSize=8;align=center;" vertex="1" parent="1">
          <mxGeometry x="140" y="330" width="1580" height="610" as="geometry" />
        </mxCell>
        <mxCell id="cVU8PKr6mCnD7bqWDLD0-124" value="Flujos para obtener una cadena binaria" style="swimlane;html=1;startSize=20;horizontal=0;" vertex="1" parent="cVU8PKr6mCnD7bqWDLD0-123">
          <mxGeometry y="20" width="1580" height="590" as="geometry" />
        </mxCell>
        <mxCell id="cVU8PKr6mCnD7bqWDLD0-165" value="" style="edgeStyle=orthogonalEdgeStyle;rounded=0;orthogonalLoop=1;jettySize=auto;html=1;" edge="1" parent="cVU8PKr6mCnD7bqWDLD0-124" target="cVU8PKr6mCnD7bqWDLD0-176">
          <mxGeometry relative="1" as="geometry">
            <mxPoint x="140" y="255" as="sourcePoint" />
          </mxGeometry>
        </mxCell>
        <mxCell id="cVU8PKr6mCnD7bqWDLD0-166" value="Inicio" style="ellipse;whiteSpace=wrap;html=1;aspect=fixed;fillColor=#d5e8d4;strokeColor=#82b366;verticalAlign=middle;" vertex="1" parent="cVU8PKr6mCnD7bqWDLD0-124">
          <mxGeometry x="60" y="215" width="80" height="80" as="geometry" />
        </mxCell>
        <mxCell id="cVU8PKr6mCnD7bqWDLD0-175" value="" style="edgeStyle=orthogonalEdgeStyle;rounded=0;orthogonalLoop=1;jettySize=auto;html=1;" edge="1" parent="cVU8PKr6mCnD7bqWDLD0-124" source="cVU8PKr6mCnD7bqWDLD0-176" target="cVU8PKr6mCnD7bqWDLD0-181">
          <mxGeometry relative="1" as="geometry" />
        </mxCell>
        <mxCell id="cVU8PKr6mCnD7bqWDLD0-176" value="Escribir cadena binaria" style="rounded=1;whiteSpace=wrap;html=1;" vertex="1" parent="cVU8PKr6mCnD7bqWDLD0-124">
          <mxGeometry x="190" y="225" width="120" height="60" as="geometry" />
        </mxCell>
        <mxCell id="cVU8PKr6mCnD7bqWDLD0-177" value="" style="edgeStyle=orthogonalEdgeStyle;rounded=0;orthogonalLoop=1;jettySize=auto;html=1;" edge="1" parent="cVU8PKr6mCnD7bqWDLD0-124" source="cVU8PKr6mCnD7bqWDLD0-181" target="cVU8PKr6mCnD7bqWDLD0-182">
          <mxGeometry relative="1" as="geometry">
            <mxPoint x="520" y="260" as="targetPoint" />
          </mxGeometry>
        </mxCell>
        <mxCell id="cVU8PKr6mCnD7bqWDLD0-178" value="Si" style="edgeLabel;html=1;align=center;verticalAlign=middle;resizable=0;points=[];" vertex="1" connectable="0" parent="cVU8PKr6mCnD7bqWDLD0-177">
          <mxGeometry x="-0.237" y="-2" relative="1" as="geometry">
            <mxPoint as="offset" />
          </mxGeometry>
        </mxCell>
        <mxCell id="cVU8PKr6mCnD7bqWDLD0-179" style="edgeStyle=orthogonalEdgeStyle;rounded=0;orthogonalLoop=1;jettySize=auto;html=1;exitX=0.5;exitY=0;exitDx=0;exitDy=0;entryX=0.5;entryY=0;entryDx=0;entryDy=0;" edge="1" parent="cVU8PKr6mCnD7bqWDLD0-124" source="cVU8PKr6mCnD7bqWDLD0-181" target="cVU8PKr6mCnD7bqWDLD0-176">
          <mxGeometry relative="1" as="geometry" />
        </mxCell>
        <mxCell id="cVU8PKr6mCnD7bqWDLD0-180" value="No" style="edgeLabel;html=1;align=center;verticalAlign=middle;resizable=0;points=[];" vertex="1" connectable="0" parent="cVU8PKr6mCnD7bqWDLD0-179">
          <mxGeometry x="-0.0675" y="-5" relative="1" as="geometry">
            <mxPoint as="offset" />
          </mxGeometry>
        </mxCell>
        <mxCell id="cVU8PKr6mCnD7bqWDLD0-181" value="Cadena binaria&lt;div&gt;valida&lt;/div&gt;" style="rhombus;whiteSpace=wrap;html=1;fillColor=#ffe6cc;strokeColor=#d79b00;" vertex="1" parent="cVU8PKr6mCnD7bqWDLD0-124">
          <mxGeometry x="350" y="215" width="80" height="80" as="geometry" />
        </mxCell>
        <mxCell id="cVU8PKr6mCnD7bqWDLD0-188" value="" style="group" vertex="1" connectable="0" parent="cVU8PKr6mCnD7bqWDLD0-124">
          <mxGeometry x="500" y="215" width="80" height="80" as="geometry" />
        </mxCell>
        <mxCell id="cVU8PKr6mCnD7bqWDLD0-182" value="" style="rhombus;whiteSpace=wrap;html=1;rounded=0;fillColor=#e1d5e7;strokeColor=#9673a6;" vertex="1" parent="cVU8PKr6mCnD7bqWDLD0-188">
          <mxGeometry width="80" height="80" as="geometry" />
        </mxCell>
        <mxCell id="cVU8PKr6mCnD7bqWDLD0-186" value="" style="ellipse;whiteSpace=wrap;html=1;aspect=fixed;fillColor=#e1d5e7;strokeColor=#9673a6;" vertex="1" parent="cVU8PKr6mCnD7bqWDLD0-188">
          <mxGeometry x="15" y="15" width="50" height="50" as="geometry" />
        </mxCell>
        <mxCell id="cVU8PKr6mCnD7bqWDLD0-192" style="edgeStyle=orthogonalEdgeStyle;rounded=0;orthogonalLoop=1;jettySize=auto;html=1;exitX=0;exitY=0.5;exitDx=0;exitDy=0;entryX=0.5;entryY=0;entryDx=0;entryDy=0;" edge="1" parent="cVU8PKr6mCnD7bqWDLD0-124" source="cVU8PKr6mCnD7bqWDLD0-189" target="cVU8PKr6mCnD7bqWDLD0-182">
          <mxGeometry relative="1" as="geometry" />
        </mxCell>
        <mxCell id="cVU8PKr6mCnD7bqWDLD0-204" style="edgeStyle=orthogonalEdgeStyle;rounded=0;orthogonalLoop=1;jettySize=auto;html=1;exitX=1;exitY=0.5;exitDx=0;exitDy=0;entryX=0.5;entryY=0;entryDx=0;entryDy=0;" edge="1" parent="cVU8PKr6mCnD7bqWDLD0-124" source="cVU8PKr6mCnD7bqWDLD0-189" target="cVU8PKr6mCnD7bqWDLD0-200">
          <mxGeometry relative="1" as="geometry" />
        </mxCell>
        <mxCell id="cVU8PKr6mCnD7bqWDLD0-189" value="Contar NÃºmeros&amp;nbsp;&lt;div&gt;0 y 1&lt;/div&gt;" style="rounded=1;whiteSpace=wrap;html=1;" vertex="1" parent="cVU8PKr6mCnD7bqWDLD0-124">
          <mxGeometry x="610" y="130" width="120" height="60" as="geometry" />
        </mxCell>
        <mxCell id="cVU8PKr6mCnD7bqWDLD0-194" style="edgeStyle=orthogonalEdgeStyle;rounded=0;orthogonalLoop=1;jettySize=auto;html=1;exitX=0;exitY=0.5;exitDx=0;exitDy=0;entryX=0.5;entryY=1;entryDx=0;entryDy=0;" edge="1" parent="cVU8PKr6mCnD7bqWDLD0-124" source="cVU8PKr6mCnD7bqWDLD0-191" target="cVU8PKr6mCnD7bqWDLD0-182">
          <mxGeometry relative="1" as="geometry" />
        </mxCell>
        <mxCell id="cVU8PKr6mCnD7bqWDLD0-202" style="edgeStyle=orthogonalEdgeStyle;rounded=0;orthogonalLoop=1;jettySize=auto;html=1;exitX=1;exitY=0.5;exitDx=0;exitDy=0;" edge="1" parent="cVU8PKr6mCnD7bqWDLD0-124" source="cVU8PKr6mCnD7bqWDLD0-191" target="cVU8PKr6mCnD7bqWDLD0-200">
          <mxGeometry relative="1" as="geometry" />
        </mxCell>
        <mxCell id="cVU8PKr6mCnD7bqWDLD0-191" value="Validar Longitud de la Cadena" style="rounded=1;whiteSpace=wrap;html=1;" vertex="1" parent="cVU8PKr6mCnD7bqWDLD0-124">
          <mxGeometry x="610" y="320" width="120" height="60" as="geometry" />
        </mxCell>
        <mxCell id="cVU8PKr6mCnD7bqWDLD0-193" style="edgeStyle=orthogonalEdgeStyle;rounded=0;orthogonalLoop=1;jettySize=auto;html=1;exitX=0;exitY=0.5;exitDx=0;exitDy=0;entryX=1;entryY=0.5;entryDx=0;entryDy=0;" edge="1" parent="cVU8PKr6mCnD7bqWDLD0-124" source="cVU8PKr6mCnD7bqWDLD0-190" target="cVU8PKr6mCnD7bqWDLD0-182">
          <mxGeometry relative="1" as="geometry" />
        </mxCell>
        <mxCell id="cVU8PKr6mCnD7bqWDLD0-203" style="edgeStyle=orthogonalEdgeStyle;rounded=0;orthogonalLoop=1;jettySize=auto;html=1;exitX=1;exitY=0.5;exitDx=0;exitDy=0;entryX=0;entryY=0.5;entryDx=0;entryDy=0;" edge="1" parent="cVU8PKr6mCnD7bqWDLD0-124" source="cVU8PKr6mCnD7bqWDLD0-190" target="cVU8PKr6mCnD7bqWDLD0-200">
          <mxGeometry relative="1" as="geometry" />
        </mxCell>
        <mxCell id="cVU8PKr6mCnD7bqWDLD0-190" value="Verificar Paridad de la Cadena" style="rounded=1;whiteSpace=wrap;html=1;" vertex="1" parent="cVU8PKr6mCnD7bqWDLD0-124">
          <mxGeometry x="610" y="225" width="120" height="60" as="geometry" />
        </mxCell>
        <mxCell id="cVU8PKr6mCnD7bqWDLD0-199" value="" style="group" vertex="1" connectable="0" parent="cVU8PKr6mCnD7bqWDLD0-124">
          <mxGeometry x="780" y="215" width="80" height="80" as="geometry" />
        </mxCell>
        <mxCell id="cVU8PKr6mCnD7bqWDLD0-200" value="" style="rhombus;whiteSpace=wrap;html=1;rounded=0;fillColor=#e1d5e7;strokeColor=#9673a6;" vertex="1" parent="cVU8PKr6mCnD7bqWDLD0-199">
          <mxGeometry width="80" height="80" as="geometry" />
        </mxCell>
        <mxCell id="cVU8PKr6mCnD7bqWDLD0-201" value="" style="ellipse;whiteSpace=wrap;html=1;aspect=fixed;fillColor=#e1d5e7;strokeColor=#9673a6;" vertex="1" parent="cVU8PKr6mCnD7bqWDLD0-199">
          <mxGeometry x="15" y="15" width="50" height="50" as="geometry" />
        </mxCell>
        <mxCell id="cVU8PKr6mCnD7bqWDLD0-209" value="" style="group" vertex="1" connectable="0" parent="cVU8PKr6mCnD7bqWDLD0-124">
          <mxGeometry x="930" y="215" width="80" height="80" as="geometry" />
        </mxCell>
        <mxCell id="cVU8PKr6mCnD7bqWDLD0-205" value="" style="rhombus;whiteSpace=wrap;html=1;fillColor=#dae8fc;strokeColor=#6c8ebf;" vertex="1" parent="cVU8PKr6mCnD7bqWDLD0-209">
          <mxGeometry width="80" height="80" as="geometry" />
        </mxCell>
        <mxCell id="cVU8PKr6mCnD7bqWDLD0-207" value="" style="shape=cross;whiteSpace=wrap;html=1;fillColor=#dae8fc;strokeColor=#6c8ebf;" vertex="1" parent="cVU8PKr6mCnD7bqWDLD0-209">
          <mxGeometry x="12.5" y="15" width="55" height="50" as="geometry" />
        </mxCell>
        <mxCell id="cVU8PKr6mCnD7bqWDLD0-210" style="edgeStyle=orthogonalEdgeStyle;rounded=0;orthogonalLoop=1;jettySize=auto;html=1;exitX=0;exitY=0.5;exitDx=0;exitDy=0;entryX=1;entryY=0.5;entryDx=0;entryDy=0;" edge="1" parent="cVU8PKr6mCnD7bqWDLD0-124" source="cVU8PKr6mCnD7bqWDLD0-205" target="cVU8PKr6mCnD7bqWDLD0-200">
          <mxGeometry relative="1" as="geometry" />
        </mxCell>
        <mxCell id="cVU8PKr6mCnD7bqWDLD0-223" value="" style="edgeStyle=orthogonalEdgeStyle;rounded=0;orthogonalLoop=1;jettySize=auto;html=1;entryX=0.5;entryY=0;entryDx=0;entryDy=0;" edge="1" parent="cVU8PKr6mCnD7bqWDLD0-124" source="cVU8PKr6mCnD7bqWDLD0-211" target="cVU8PKr6mCnD7bqWDLD0-224">
          <mxGeometry relative="1" as="geometry">
            <mxPoint x="1310" y="160" as="targetPoint" />
          </mxGeometry>
        </mxCell>
        <mxCell id="cVU8PKr6mCnD7bqWDLD0-211" value="RevisiÃ³n Manual de la Cadena" style="rounded=1;whiteSpace=wrap;html=1;" vertex="1" parent="cVU8PKr6mCnD7bqWDLD0-124">
          <mxGeometry x="1140" y="130" width="120" height="60" as="geometry" />
        </mxCell>
        <mxCell id="cVU8PKr6mCnD7bqWDLD0-220" value="" style="edgeStyle=orthogonalEdgeStyle;rounded=0;orthogonalLoop=1;jettySize=auto;html=1;" edge="1" parent="cVU8PKr6mCnD7bqWDLD0-124" source="cVU8PKr6mCnD7bqWDLD0-212">
          <mxGeometry relative="1" as="geometry">
            <mxPoint x="1340" y="255" as="targetPoint" />
          </mxGeometry>
        </mxCell>
        <mxCell id="cVU8PKr6mCnD7bqWDLD0-212" value="Procesar Cadena Binaria" style="rounded=1;whiteSpace=wrap;html=1;" vertex="1" parent="cVU8PKr6mCnD7bqWDLD0-124">
          <mxGeometry x="1140" y="225" width="120" height="60" as="geometry" />
        </mxCell>
        <mxCell id="cVU8PKr6mCnD7bqWDLD0-214" style="edgeStyle=orthogonalEdgeStyle;rounded=0;orthogonalLoop=1;jettySize=auto;html=1;exitX=0.5;exitY=0;exitDx=0;exitDy=0;entryX=0;entryY=0.5;entryDx=0;entryDy=0;" edge="1" parent="cVU8PKr6mCnD7bqWDLD0-124" source="cVU8PKr6mCnD7bqWDLD0-205" target="cVU8PKr6mCnD7bqWDLD0-211">
          <mxGeometry relative="1" as="geometry" />
        </mxCell>
        <mxCell id="cVU8PKr6mCnD7bqWDLD0-221" value="&amp;nbsp;longitud es incorrecta" style="edgeLabel;html=1;align=center;verticalAlign=middle;resizable=0;points=[];" vertex="1" connectable="0" parent="cVU8PKr6mCnD7bqWDLD0-214">
          <mxGeometry x="0.0333" y="2" relative="1" as="geometry">
            <mxPoint x="19" y="-8" as="offset" />
          </mxGeometry>
        </mxCell>
        <mxCell id="cVU8PKr6mCnD7bqWDLD0-215" style="edgeStyle=orthogonalEdgeStyle;rounded=0;orthogonalLoop=1;jettySize=auto;html=1;exitX=1;exitY=0.5;exitDx=0;exitDy=0;entryX=0;entryY=0.5;entryDx=0;entryDy=0;" edge="1" parent="cVU8PKr6mCnD7bqWDLD0-124" source="cVU8PKr6mCnD7bqWDLD0-205" target="cVU8PKr6mCnD7bqWDLD0-212">
          <mxGeometry relative="1" as="geometry" />
        </mxCell>
        <mxCell id="cVU8PKr6mCnD7bqWDLD0-218" value="paridad es correcta" style="edgeLabel;html=1;align=center;verticalAlign=middle;resizable=0;points=[];" vertex="1" connectable="0" parent="cVU8PKr6mCnD7bqWDLD0-215">
          <mxGeometry x="-0.3864" y="1" relative="1" as="geometry">
            <mxPoint x="25" y="-4" as="offset" />
          </mxGeometry>
        </mxCell>
        <mxCell id="cVU8PKr6mCnD7bqWDLD0-226" value="" style="edgeStyle=orthogonalEdgeStyle;rounded=0;orthogonalLoop=1;jettySize=auto;html=1;" edge="1" parent="cVU8PKr6mCnD7bqWDLD0-124" source="cVU8PKr6mCnD7bqWDLD0-224" target="cVU8PKr6mCnD7bqWDLD0-225">
          <mxGeometry relative="1" as="geometry" />
        </mxCell>
        <mxCell id="cVU8PKr6mCnD7bqWDLD0-224" value="" style="rhombus;whiteSpace=wrap;html=1;fillColor=#ffe6cc;strokeColor=#d79b00;" vertex="1" parent="cVU8PKr6mCnD7bqWDLD0-124">
          <mxGeometry x="1290" y="215" width="80" height="80" as="geometry" />
        </mxCell>
        <mxCell id="cVU8PKr6mCnD7bqWDLD0-225" value="Fin" style="ellipse;whiteSpace=wrap;html=1;fillColor=#f8cecc;strokeColor=#b85450;" vertex="1" parent="cVU8PKr6mCnD7bqWDLD0-124">
          <mxGeometry x="1420" y="215" width="80" height="80" as="geometry" />
        </mxCell>
      </root>
    </mxGraphModel>
  </diagram>
</mxfile>
